<svg xmlns="http://www.w3.org/2000/svg" width="2048" height="2048" style="overflow: visible;" viewBox="0 0 512 512" data-bbox="46.195403439496914 97.0412249993274 419.6091931210061 317.91755000134515"><path transform="matrix(2.378054141998291, 0, 0, 2.378054141998291, 137.09730529785156, 97.04122161865234)" fill="#ffffff" data-type="circle" data-cx="50" data-cy="50" data-r="50" d="M50,50m-50,0a50,50 0 1, 0 100,0a50,50 0 1, 0 -100,0" data-uid="o_f3c44dni3_4"></path><path text="GEOCACHING" fill="#93c573" space="preserve" text-anchor="middle" offset="0.5" font-scale="contain" font-size="48" font-family="Lato" transform="matrix(1.3273646831512451, 0, 0, 1.3273646831512451, 256.6862487792969, 414.4543762207031)" font-weight="700" font-style="normal" data-uid="o_f3c44dni3_5" data-fl-textpath="" d="M-140.62800000000001-4.75L-140.62800000000001-4.75Q-138.448-4.75 -136.828-5.15Q-135.20800000000003-5.54 -133.738-6.24L-133.738-6.24L-133.738-12.55L-138.08800000000002-12.55Q-138.70800000000003-12.55 -139.068-12.9Q-139.428-13.25 -139.428-13.75L-139.428-13.75L-139.428-17.4L-127.888-17.4L-127.888-3.36Q-129.20800000000003-2.4 -130.62800000000001-1.69Q-132.05800000000002-0.98 -133.678-0.53Q-135.298-0.07 -137.14800000000002 0.16Q-138.99800000000002 0.38 -141.12800000000001 0.38L-141.12800000000001 0.38Q-144.928 0.38 -148.11800000000002-0.94Q-151.30800000000002-2.26 -153.638-4.61Q-155.96800000000002-6.96 -157.268-10.22Q-158.578-13.49 -158.578-17.35L-158.578-17.35Q-158.578-21.26 -157.30800000000002-24.53Q-156.038-27.79 -153.698-30.14Q-151.358-32.5 -148.018-33.79Q-144.68800000000002-35.09 -140.52800000000002-35.09L-140.52800000000002-35.09Q-136.288-35.09 -133.178-33.83Q-130.068-32.57 -127.90800000000002-30.55L-127.90800000000002-30.55L-129.77800000000002-27.62Q-130.328-26.74 -131.24800000000002-26.74L-131.24800000000002-26.74Q-131.818-26.74 -132.418-27.12L-132.418-27.12Q-133.18800000000002-27.58 -133.988-28.03Q-134.798-28.49 -135.768-28.82Q-136.738-29.16 -137.948-29.38Q-139.168-29.59 -140.74800000000002-29.59L-140.74800000000002-29.59Q-143.318-29.59 -145.388-28.73Q-147.46800000000002-27.86 -148.928-26.26Q-150.39800000000002-24.65 -151.18800000000002-22.39Q-151.978-20.14 -151.978-17.35L-151.978-17.35Q-151.978-14.35 -151.138-12.01Q-150.298-9.67 -148.788-8.06Q-147.27800000000002-6.46 -145.18800000000002-5.6Q-143.098-4.75 -140.62800000000001-4.75ZM-121.864-34.7L-99.974-34.7L-99.974-29.57L-115.354-29.57L-115.354-19.94L-103.23400000000001-19.94L-103.23400000000001-14.98L-115.354-14.98L-115.354-5.16L-99.974-5.16L-99.974 0L-121.864 0L-121.864-34.7ZM-61.094-17.35L-61.094-17.35Q-61.094-13.54 -62.364-10.28Q-63.634-7.03 -65.944-4.66Q-68.244-2.28 -71.48400000000001-0.95Q-74.724 0.38 -78.664 0.38L-78.664 0.38Q-82.594 0.38 -85.844-0.95Q-89.104-2.28 -91.414-4.66Q-93.734-7.03 -95.004-10.28Q-96.274-13.54 -96.274-17.35L-96.274-17.35Q-96.274-21.17 -95.004-24.42Q-93.734-27.67 -91.414-30.05Q-89.104-32.42 -85.844-33.76Q-82.594-35.09 -78.664-35.09L-78.664-35.09Q-74.724-35.09 -71.48400000000001-33.74Q-68.244-32.4 -65.944-30.04Q-63.634-27.67 -62.364-24.42Q-61.094-21.17 -61.094-17.35ZM-67.714-17.35L-67.714-17.35Q-67.714-20.21 -68.474-22.48Q-69.224-24.74 -70.644-26.33Q-72.064-27.91 -74.084-28.75Q-76.114-29.59 -78.664-29.59L-78.664-29.59Q-81.20400000000001-29.59 -83.244-28.75Q-85.284-27.91 -86.714-26.33Q-88.144-24.74 -88.904-22.48Q-89.674-20.21 -89.674-17.35L-89.674-17.35Q-89.674-14.5 -88.904-12.23Q-88.144-9.96 -86.714-8.39Q-85.284-6.82 -83.244-5.98Q-81.20400000000001-5.14 -78.664-5.14L-78.664-5.14Q-76.114-5.14 -74.084-5.98Q-72.064-6.82 -70.644-8.39Q-69.224-9.96 -68.474-12.23Q-67.714-14.5 -67.714-17.35ZM-32.148-8.18L-32.148-8.18Q-31.618000000000002-8.18 -31.238000000000003-7.78L-31.238000000000003-7.78L-28.688000000000002-5.02Q-30.808000000000003-2.4 -33.888000000000005-1.01Q-36.968 0.38 -41.288000000000004 0.38L-41.288000000000004 0.38Q-45.158 0.38 -48.238-0.94Q-51.328-2.26 -53.508-4.61Q-55.688-6.96 -56.858000000000004-10.22Q-58.018-13.49 -58.018-17.35L-58.018-17.35Q-58.018-21.26 -56.728-24.52Q-55.428000000000004-27.77 -53.078-30.12Q-50.728-32.47 -47.448-33.78Q-44.168000000000006-35.09 -40.208-35.09L-40.208-35.09Q-36.348-35.09 -33.458-33.85Q-30.568-32.62 -28.498-30.58L-28.498-30.58L-30.658-27.58Q-30.848000000000003-27.29 -31.148000000000003-27.07Q-31.448000000000004-26.86 -31.978-26.86L-31.978-26.86Q-32.528000000000006-26.86 -33.108000000000004-27.29Q-33.688-27.72 -34.568-28.22Q-35.458-28.73 -36.818-29.16Q-38.168000000000006-29.59 -40.258-29.59L-40.258-29.59Q-42.708-29.59 -44.758-28.74Q-46.80800000000001-27.89 -48.288000000000004-26.3Q-49.768-24.72 -50.588-22.45Q-51.418000000000006-20.18 -51.418000000000006-17.35L-51.418000000000006-17.35Q-51.418000000000006-14.42 -50.588-12.14Q-49.768-9.86 -48.348-8.3Q-46.928000000000004-6.74 -45.008-5.92Q-43.088-5.09 -40.888000000000005-5.09L-40.888000000000005-5.09Q-39.568-5.09 -38.498000000000005-5.23Q-37.428000000000004-5.38 -36.528000000000006-5.69Q-35.628-6 -34.828-6.49Q-34.018-6.98 -33.228-7.7L-33.228-7.7Q-32.988-7.92 -32.728-8.05Q-32.458-8.18 -32.148-8.18ZM-6.944000000000006-34.7L 6.685999999999993 0L 1.6959999999999944 0Q 0.8559999999999945 0  0.3159999999999954-0.42Q-0.22400000000000375-0.84 -0.46400000000000574-1.46L-0.46400000000000574-1.46L-3.0640000000000036-8.54L-17.434000000000005-8.54L-20.024000000000004-1.46Q-20.224000000000004-0.91 -20.784000000000006-0.46Q-21.344000000000005 0 -22.164000000000005 0L-22.164000000000005 0L-27.184000000000005 0L-13.544000000000006-34.7L-6.944000000000006-34.7ZM-11.554000000000006-24.6L-15.784000000000006-13.1L-4.714000000000006-13.1L-8.944000000000006-24.65Q-9.224000000000004-25.42 -9.574000000000005-26.46Q-9.924000000000007-27.5 -10.264000000000006-28.73L-10.264000000000006-28.73Q-10.594000000000005-27.5 -10.924000000000007-26.45Q-11.244000000000007-25.39 -11.554000000000006-24.6L-11.554000000000006-24.6ZM 32.891999999999996-8.18L 32.891999999999996-8.18Q 33.422-8.18  33.80199999999999-7.78L 33.80199999999999-7.78L 36.352-5.02Q 34.232-2.4  31.151999999999997-1.01Q 28.071999999999996 0.38  23.751999999999995 0.38L 23.751999999999995 0.38Q 19.881999999999998 0.38  16.801999999999996-0.94Q 13.711999999999996-2.26  11.531999999999996-4.61Q 9.351999999999997-6.96  8.181999999999997-10.22Q 7.021999999999997-13.49  7.021999999999997-17.35L 7.021999999999997-17.35Q 7.021999999999997-21.26  8.311999999999996-24.52Q 9.611999999999997-27.77  11.961999999999996-30.12Q 14.311999999999996-32.47  17.592-33.78Q 20.871999999999996-35.09  24.831999999999997-35.09L 24.831999999999997-35.09Q 28.691999999999997-35.09  31.581999999999997-33.85Q 34.471999999999994-32.62  36.542-30.58L 36.542-30.58L 34.382-27.58Q 34.19199999999999-27.29  33.891999999999996-27.07Q 33.592-26.86  33.062-26.86L 33.062-26.86Q 32.512-26.86  31.931999999999995-27.29Q 31.351999999999997-27.72  30.471999999999998-28.22Q 29.581999999999997-28.73  28.221999999999998-29.16Q 26.871999999999996-29.59  24.781999999999996-29.59L 24.781999999999996-29.59Q 22.331999999999997-29.59  20.281999999999996-28.74Q 18.231999999999996-27.89  16.751999999999995-26.3Q 15.271999999999997-24.72  14.451999999999996-22.45Q 13.621999999999996-20.18  13.621999999999996-17.35L 13.621999999999996-17.35Q 13.621999999999996-14.42  14.451999999999996-12.14Q 15.271999999999997-9.86  16.691999999999997-8.3Q 18.111999999999995-6.74  20.031999999999996-5.92Q 21.951999999999998-5.09  24.151999999999997-5.09L 24.151999999999997-5.09Q 25.471999999999998-5.09  26.541999999999998-5.23Q 27.611999999999995-5.38  28.511999999999997-5.69Q 29.411999999999995-6  30.211999999999996-6.49Q 31.021999999999995-6.98  31.811999999999998-7.7L 31.811999999999998-7.7Q 32.05199999999999-7.92  32.312-8.05Q 32.581999999999994-8.18  32.891999999999996-8.18ZM 70.496-34.7L 70.496 0L 63.995999999999995 0L 63.995999999999995-15.17L 47.72599999999999-15.17L 47.72599999999999 0L 41.215999999999994 0L 41.215999999999994-34.7L 47.72599999999999-34.7L 47.72599999999999-19.78L 63.995999999999995-19.78L 63.995999999999995-34.7L 70.496-34.7ZM 84.78399999999999-34.7L 84.78399999999999 0L 78.30399999999999 0L 78.30399999999999-34.7L 84.78399999999999-34.7ZM 95.966-34.7L 95.966-34.7Q 96.39599999999999-34.7  96.68599999999999-34.67Q 96.976-34.63  97.196-34.52Q 97.42599999999999-34.42  97.64599999999999-34.21Q 97.856-34.01  98.12599999999999-33.67L 98.12599999999999-33.67L 116.336-10.46Q 116.246-11.3  116.20599999999999-12.11Q 116.17599999999999-12.91  116.17599999999999-13.61L 116.17599999999999-13.61L 116.17599999999999-34.7L 121.856-34.7L 121.856 0L 118.526 0Q 117.756 0  117.256-0.24Q 116.746-0.48  116.26599999999999-1.1L 116.26599999999999-1.1L 98.12599999999999-24.22Q 98.196-23.45  98.23599999999999-22.69Q 98.26599999999999-21.94  98.26599999999999-21.31L 98.26599999999999-21.31L 98.26599999999999 0L 92.576 0L 92.576-34.7L 95.966-34.7ZM 144.804-4.75L 144.804-4.75Q 146.984-4.75  148.604-5.15Q 150.224-5.54  151.69400000000002-6.24L 151.69400000000002-6.24L 151.69400000000002-12.55L 147.344-12.55Q 146.724-12.55  146.364-12.9Q 146.00400000000002-13.25  146.00400000000002-13.75L 146.00400000000002-13.75L 146.00400000000002-17.4L 157.544-17.4L 157.544-3.36Q 156.224-2.4  154.804-1.69Q 153.374-0.98  151.75400000000002-0.53Q 150.13400000000001-0.07  148.284 0.16Q 146.434 0.38  144.304 0.38L 144.304 0.38Q 140.50400000000002 0.38  137.314-0.94Q 134.124-2.26  131.794-4.61Q 129.464-6.96  128.16400000000002-10.22Q 126.854-13.49  126.854-17.35L 126.854-17.35Q 126.854-21.26  128.124-24.53Q 129.394-27.79  131.734-30.14Q 134.074-32.5  137.41400000000002-33.79Q 140.744-35.09  144.904-35.09L 144.904-35.09Q 149.144-35.09  152.25400000000002-33.83Q 155.364-32.57  157.524-30.55L 157.524-30.55L 155.654-27.62Q 155.104-26.74  154.184-26.74L 154.184-26.74Q 153.614-26.74  153.014-27.12L 153.014-27.12Q 152.244-27.58  151.44400000000002-28.03Q 150.63400000000001-28.49  149.66400000000002-28.82Q 148.69400000000002-29.16  147.484-29.38Q 146.264-29.59  144.684-29.59L 144.684-29.59Q 142.114-29.59  140.044-28.73Q 137.964-27.86  136.50400000000002-26.26Q 135.034-24.65  134.244-22.39Q 133.454-20.14  133.454-17.35L 133.454-17.35Q 133.454-14.35  134.294-12.01Q 135.13400000000001-9.67  136.644-8.06Q 138.154-6.46  140.244-5.6Q 142.334-4.75  144.804-4.75Z"></path><path transform="matrix(2.202209234237671, 0, 0, 2.202209234237671, 146.0804901123047, 105.83346557617188)" fill="#7cba8d" data-type="circle" data-cx="50" data-cy="50" data-r="50" d="M50,50m-50,0a50,50 0 1, 0 100,0a50,50 0 1, 0 -100,0" data-uid="o_f3c44dni3_6"></path><path transform="matrix(0.917951762676239, 0.917951762676239, -0.8810566663742065, 0.8810566663742065, 252.7221221923828, 57.1721305847168)" fill="#ffffff" data-type="rect" data-x="0" data-y="84.525" data-width="176.742" data-height="7.219" d="M0 84.525H176.742 V91.744 H0 Z" data-uid="o_f3c44dni3_7"></path><path transform="matrix(0.2841353416442871, 0.2841353416442871, -0.3553997278213501, 0.3553997278213501, 301.1422424316406, 130.0538330078125)" fill="#ffffff" data-type="polygon" d="M71.7 0L0 184.34L71.7 368.69L143.41 184.34L71.7 0Z" data-uid="o_f3c44dni3_8"></path><path transform="matrix(0.19217950105667114, 0.19217950105667114, -0.24038025736808777, 0.24038025736808777, 286.7236328125, 157.85079956054688)" fill="#917e3e" data-type="polygon" d="M71.7 0L0 184.34L71.7 368.69L143.41 184.34L71.7 0Z" data-uid="o_f3c44dni3_9"></path></svg>